<svg xmlns="http://www.w3.org/2000/svg" xmlns:xlink="http://www.w3.org/1999/xlink" width="200" height="21.001" viewBox="0 0 200 21.001">
  <defs>
    <linearGradient id="linear-gradient" x1="1.1" y1="53.491" x2="1.1" y2="-1.358" gradientUnits="objectBoundingBox">
      <stop offset="0" stop-color="#4f8328"/>
      <stop offset="1" stop-color="#6cac3c"/>
    </linearGradient>
  </defs>
  <g id="logo_małe" data-name="logo małe" transform="translate(-20 -16)">
    <path id="Shape_1" data-name="Shape 1" d="M121.9,16h34.771a3.6,3.6,0,0,1,3.583,3.606l-2.107,13.788A3.594,3.594,0,0,1,154.566,37H119.795a3.6,3.6,0,0,1-3.583-3.606l2.107-13.788A3.6,3.6,0,0,1,121.9,16Z" fill="#ff7f00"/>
    <path id="_24_copy" data-name="24 copy" d="M122.17,33.881c.262-1.28.4-5.459,1.965-7.035a4.123,4.123,0,0,1,3.69-1.546l5.744.036a1.166,1.166,0,0,0,.841-.357c.243-.239.365-.344.365-.669a.689.689,0,0,0-.785-.773h-6.039a3.142,3.142,0,0,1-2.3-.882,3.5,3.5,0,0,1-.967-2.433,4.154,4.154,0,0,1,.084-.813H135.5a4.01,4.01,0,0,1,2.812,1.15,3.551,3.551,0,0,1,.7,2.723c0,.3-.354,2.106-.428,2.444a3.829,3.829,0,0,1-1.893,2.545,6.276,6.276,0,0,1-3.293.626h-5.076c-.318,0,0-.137-.842.358a2.147,2.147,0,0,0-.961,1.557c-.052.176.679.167,1.382.167s9.706-.018,9.759-.018-.555,3.583-.611,3.863H126.178l-4.121.043A4.578,4.578,0,0,1,122.17,33.881Zm27.421-2.907c.131-1.339-1-1.711-2.752-1.711s-4.049.014-4.049.014a3.058,3.058,0,0,1-2.335-.91,3.4,3.4,0,0,1-.8-2.519,5.765,5.765,0,0,1,.19-.928l.956-4.751a3.107,3.107,0,0,1,2.369.875,3.942,3.942,0,0,1,.637,2.236l.053.84.052.418.088.392s.367.725.89.725h4.544s.641.108,1.1-1.165a6.448,6.448,0,0,1,1.714-3.167,4.343,4.343,0,0,1,3.012-1.206l-.906,5.4s-.832,5.5-.8,4.817c-.292,1.411-1.362,4.457-4.583,4.457C149.066,33.152,149.458,32.313,149.591,30.974Z"/>
    <path id="_24" data-name="24" d="M120.905,32.819c.262-1.279.4-5.459,1.966-7.035a4.122,4.122,0,0,1,3.69-1.545l5.743.035a1.164,1.164,0,0,0,.841-.357c.243-.239.364-.344.364-.668a.689.689,0,0,0-.785-.773h-6.039a3.139,3.139,0,0,1-2.3-.883,3.5,3.5,0,0,1-.968-2.433,4.1,4.1,0,0,1,.085-.813h10.734a4.01,4.01,0,0,1,2.812,1.15,3.553,3.553,0,0,1,.7,2.723c0,.3-.354,2.106-.428,2.444a3.83,3.83,0,0,1-1.893,2.546,6.277,6.277,0,0,1-3.293.626h-5.076c-.318,0,0-.137-.841.357a2.147,2.147,0,0,0-.962,1.557c-.052.176.68.167,1.382.167s9.706-.018,9.759-.018-.555,3.583-.611,3.863H124.914l-4.12.043A4.59,4.59,0,0,1,120.905,32.819Zm27.421-2.907c.131-1.338-1-1.71-2.752-1.71s-4.048.014-4.048.014a3.056,3.056,0,0,1-2.336-.911,3.4,3.4,0,0,1-.8-2.519,5.8,5.8,0,0,1,.19-.928l.956-4.75a3.107,3.107,0,0,1,2.369.875,3.939,3.939,0,0,1,.637,2.235l.052.84.053.418.089.392s.366.725.889.725h4.544s.641.107,1.1-1.166a6.449,6.449,0,0,1,1.714-3.166A4.344,4.344,0,0,1,154,19.055l-.906,5.4s-.832,5.5-.8,4.817c-.292,1.41-1.362,4.456-4.582,4.456C147.8,32.091,148.194,31.252,148.326,29.912Z" fill="#fff"/>
    <g id="_.coM" data-name=".coM">
      <path id="_.coM-2" data-name=".coM" d="M161.662,33.861a1.965,1.965,0,0,1-.47-1.353,2.922,2.922,0,0,1,.79-2.016,2.334,2.334,0,0,1,1.753-.875,1.536,1.536,0,0,1,1.2.53,1.966,1.966,0,0,1,.47,1.353,2.944,2.944,0,0,1-.779,2.016,2.318,2.318,0,0,1-1.764.875A1.536,1.536,0,0,1,161.662,33.861Zm54.351-.624a3.318,3.318,0,0,1-.779-2.269,4.253,4.253,0,0,1,.084-.823l.994-5.408a1.461,1.461,0,0,0,.023-.244q0-.976-.825-.976h-1.374a1.135,1.135,0,0,0-.8.353,1.551,1.551,0,0,0-.458.867l-1.352,7.4a2.6,2.6,0,0,1-.768,1.406,1.872,1.872,0,0,1-1.317.583,1.267,1.267,0,0,1-1.008-.451,1.641,1.641,0,0,1-.39-1.114,2.257,2.257,0,0,1,.04-.425l1.352-7.4a1.2,1.2,0,0,0,.028-.244q0-.975-.821-.975h-1.37a1.127,1.127,0,0,0-.8.354,1.561,1.561,0,0,0-.456.869l-.995,5.408a5.026,5.026,0,0,1-1.525,2.81,3.79,3.79,0,0,1-2.649,1.166l1.9-10.342a5.03,5.03,0,0,1,1.524-2.812,3.781,3.781,0,0,1,2.646-1.166h10.309a2.531,2.531,0,0,1,1.993.888A3.314,3.314,0,0,1,220,22.961a5.132,5.132,0,0,1-.069.823l-1.9,10.342A2.56,2.56,0,0,1,216.013,33.237Zm-29.185.888a2.529,2.529,0,0,1-1.993-.888,3.311,3.311,0,0,1-.779-2.267,5.139,5.139,0,0,1,.068-.823l1.168-6.364a5.193,5.193,0,0,1,1.535-2.812,3.742,3.742,0,0,1,2.634-1.166h7.9a2.557,2.557,0,0,1,2.016.888,3.313,3.313,0,0,1,.779,2.267,3.885,3.885,0,0,1-.092.823L198.9,30.147a5.061,5.061,0,0,1-1.512,2.812,3.767,3.767,0,0,1-2.658,1.166Zm2.191-10.256a1.541,1.541,0,0,0-.459.866l-.818,4.457a1.563,1.563,0,0,0-.022.244q0,.977.826.976h5.847a1.138,1.138,0,0,0,.8-.352,1.541,1.541,0,0,0,.459-.866l.818-4.457a1.68,1.68,0,0,0,.021-.244q0-.976-.848-.976H189.8A1.114,1.114,0,0,0,189.019,23.87ZM171.478,34.125a2.527,2.527,0,0,1-1.993-.888,3.312,3.312,0,0,1-.779-2.267,5.143,5.143,0,0,1,.069-.823l1.168-6.364a5.192,5.192,0,0,1,1.535-2.812,3.746,3.746,0,0,1,2.635-1.166h9.8a4.821,4.821,0,0,1-1.445,2.62A3.538,3.538,0,0,1,180,23.518H174.45a1.113,1.113,0,0,0-.779.352,1.541,1.541,0,0,0-.459.866l-.818,4.457a1.563,1.563,0,0,0-.022.244q0,.977.824.976h5.888a2.4,2.4,0,0,1,1.879.83,3.043,3.043,0,0,1,.733,2.093,4.575,4.575,0,0,1-.068.789Zm-67.173,0a2.529,2.529,0,0,1-1.993-.888,3.311,3.311,0,0,1-.779-2.267,5.138,5.138,0,0,1,.068-.823l1.9-10.342a2.556,2.556,0,0,1,2.016.888,3.312,3.312,0,0,1,.779,2.269,4.253,4.253,0,0,1-.084.823l-.994,5.408a1.564,1.564,0,0,0-.022.244q0,.976.824.976h4.261a2.421,2.421,0,0,1,1.9.83,3.081,3.081,0,0,1,.733,2.12,3.415,3.415,0,0,1-.092.763Zm-17.366,0a2.528,2.528,0,0,1-1.993-.888,3.312,3.312,0,0,1-.779-2.267,5.142,5.142,0,0,1,.069-.823L85.4,23.783a5.192,5.192,0,0,1,1.535-2.812,3.746,3.746,0,0,1,2.635-1.166h7.9a2.557,2.557,0,0,1,2.016.888,3.317,3.317,0,0,1,.779,2.267,3.885,3.885,0,0,1-.092.823l-1.168,6.364A5.061,5.061,0,0,1,97.5,32.959a3.77,3.77,0,0,1-2.658,1.166ZM89.132,23.87a1.541,1.541,0,0,0-.459.866l-.818,4.457a1.564,1.564,0,0,0-.022.244q0,.977.825.976h5.848a1.138,1.138,0,0,0,.8-.352,1.541,1.541,0,0,0,.459-.866l.818-4.457a1.681,1.681,0,0,0,.021-.244q0-.976-.848-.976H89.911A1.113,1.113,0,0,0,89.132,23.87ZM66.62,34.125l2.634-14.32H79.907a2.532,2.532,0,0,1,1.993.888,3.317,3.317,0,0,1,.779,2.267,4.862,4.862,0,0,1-1.672,3.712A3.079,3.079,0,0,1,82.2,29.326a4.882,4.882,0,0,1-1.306,3.328,3.861,3.861,0,0,1-2.932,1.472Zm4.238-5.233a1.156,1.156,0,0,0-.3.794q0,.726.618.726h6.506a.91.91,0,0,0,.676-.336,1.138,1.138,0,0,0,.31-.795c0-.483-.214-.726-.642-.726H71.522A.875.875,0,0,0,70.858,28.893Zm.916-5.038a1.156,1.156,0,0,0-.3.793c0,.485.213.726.642.726h5.8a.91.91,0,0,0,.676-.336,1.133,1.133,0,0,0,.309-.794q0-.726-.641-.726H72.438A.875.875,0,0,0,71.774,23.854Zm-15.166,9.82a1.644,1.644,0,0,1-.39-1.113,2.012,2.012,0,0,1,.046-.425l1.42-7.8a.605.605,0,0,0,.023-.164q0-.659-.55-.658h-1.42a2.4,2.4,0,0,1-1.879-.829,3.084,3.084,0,0,1-.733-2.12,4.436,4.436,0,0,1,.068-.763h14.09a4.694,4.694,0,0,1-1.419,2.62,3.554,3.554,0,0,1-2.495,1.093h-1.4q-.687,0-.847.823l-1.421,7.8a2.6,2.6,0,0,1-.769,1.4,1.879,1.879,0,0,1-1.319.582A1.27,1.27,0,0,1,56.608,33.674Zm-18.694.451a2.554,2.554,0,0,1-2.016-.888,3.311,3.311,0,0,1-.778-2.267,5.139,5.139,0,0,1,.068-.823l1.9-10.342a2.558,2.558,0,0,1,2.016.888,3.316,3.316,0,0,1,.778,2.269,5.94,5.94,0,0,1-.059.823l-1.018,5.408a1.564,1.564,0,0,0-.022.244q0,.976.825.976h5.5a1.138,1.138,0,0,0,.8-.352,1.541,1.541,0,0,0,.459-.866l1.017-5.407A5.076,5.076,0,0,1,48.9,20.973a3.717,3.717,0,0,1,2.623-1.167l-1.9,10.342a5.061,5.061,0,0,1-1.512,2.812,3.746,3.746,0,0,1-2.634,1.166ZM21.9,23.783a5.035,5.035,0,0,1,1.524-2.812,3.782,3.782,0,0,1,2.646-1.166h9.278a4.823,4.823,0,0,1-1.442,2.62,3.532,3.532,0,0,1-2.473,1.093H26.35q-.961,0-1.167,1.141l-.205,1.112h5.149q1.122,0,1.121,1.247a1.956,1.956,0,0,1-.527,1.352,1.572,1.572,0,0,1-1.19.583H25.184q-.8,0-.961.931l-.049.265a5.022,5.022,0,0,1-1.525,2.81A3.79,3.79,0,0,1,20,34.125Z" fill="#1e1e1e"/>
      <path id="Gradient_Overlay" data-name="Gradient Overlay" d="M161.662,33.861a1.965,1.965,0,0,1-.47-1.353,2.922,2.922,0,0,1,.79-2.016,2.334,2.334,0,0,1,1.753-.875,1.536,1.536,0,0,1,1.2.53,1.966,1.966,0,0,1,.47,1.353,2.944,2.944,0,0,1-.779,2.016,2.318,2.318,0,0,1-1.764.875A1.536,1.536,0,0,1,161.662,33.861Zm54.351-.624a3.318,3.318,0,0,1-.779-2.269,4.253,4.253,0,0,1,.084-.823l.994-5.408a1.461,1.461,0,0,0,.023-.244q0-.976-.825-.976h-1.374a1.135,1.135,0,0,0-.8.353,1.551,1.551,0,0,0-.458.867l-1.352,7.4a2.6,2.6,0,0,1-.768,1.406,1.872,1.872,0,0,1-1.317.583,1.267,1.267,0,0,1-1.008-.451,1.641,1.641,0,0,1-.39-1.114,2.257,2.257,0,0,1,.04-.425l1.352-7.4a1.2,1.2,0,0,0,.028-.244q0-.975-.821-.975h-1.37a1.127,1.127,0,0,0-.8.354,1.561,1.561,0,0,0-.456.869l-.995,5.408a5.026,5.026,0,0,1-1.525,2.81,3.79,3.79,0,0,1-2.649,1.166l1.9-10.342a5.03,5.03,0,0,1,1.524-2.812,3.781,3.781,0,0,1,2.646-1.166h10.309a2.531,2.531,0,0,1,1.993.888A3.314,3.314,0,0,1,220,22.961a5.132,5.132,0,0,1-.069.823l-1.9,10.342A2.56,2.56,0,0,1,216.013,33.237Zm-29.185.888a2.529,2.529,0,0,1-1.993-.888,3.311,3.311,0,0,1-.779-2.267,5.139,5.139,0,0,1,.068-.823l1.168-6.364a5.193,5.193,0,0,1,1.535-2.812,3.742,3.742,0,0,1,2.634-1.166h7.9a2.557,2.557,0,0,1,2.016.888,3.313,3.313,0,0,1,.779,2.267,3.885,3.885,0,0,1-.092.823L198.9,30.147a5.061,5.061,0,0,1-1.512,2.812,3.767,3.767,0,0,1-2.658,1.166Zm2.191-10.256a1.541,1.541,0,0,0-.459.866l-.818,4.457a1.563,1.563,0,0,0-.022.244q0,.977.826.976h5.847a1.138,1.138,0,0,0,.8-.352,1.541,1.541,0,0,0,.459-.866l.818-4.457a1.68,1.68,0,0,0,.021-.244q0-.976-.848-.976H189.8A1.114,1.114,0,0,0,189.019,23.87ZM171.478,34.125a2.527,2.527,0,0,1-1.993-.888,3.312,3.312,0,0,1-.779-2.267,5.143,5.143,0,0,1,.069-.823l1.168-6.364a5.192,5.192,0,0,1,1.535-2.812,3.746,3.746,0,0,1,2.635-1.166h9.8a4.821,4.821,0,0,1-1.445,2.62A3.538,3.538,0,0,1,180,23.518H174.45a1.113,1.113,0,0,0-.779.352,1.541,1.541,0,0,0-.459.866l-.818,4.457a1.563,1.563,0,0,0-.022.244q0,.977.824.976h5.888a2.4,2.4,0,0,1,1.879.83,3.043,3.043,0,0,1,.733,2.093,4.575,4.575,0,0,1-.068.789Zm-67.173,0a2.529,2.529,0,0,1-1.993-.888,3.311,3.311,0,0,1-.779-2.267,5.138,5.138,0,0,1,.068-.823l1.9-10.342a2.556,2.556,0,0,1,2.016.888,3.312,3.312,0,0,1,.779,2.269,4.253,4.253,0,0,1-.084.823l-.994,5.408a1.564,1.564,0,0,0-.022.244q0,.976.824.976h4.261a2.421,2.421,0,0,1,1.9.83,3.081,3.081,0,0,1,.733,2.12,3.415,3.415,0,0,1-.092.763Zm-17.366,0a2.528,2.528,0,0,1-1.993-.888,3.312,3.312,0,0,1-.779-2.267,5.142,5.142,0,0,1,.069-.823L85.4,23.783a5.192,5.192,0,0,1,1.535-2.812,3.746,3.746,0,0,1,2.635-1.166h7.9a2.557,2.557,0,0,1,2.016.888,3.317,3.317,0,0,1,.779,2.267,3.885,3.885,0,0,1-.092.823l-1.168,6.364A5.061,5.061,0,0,1,97.5,32.959a3.77,3.77,0,0,1-2.658,1.166ZM89.132,23.87a1.541,1.541,0,0,0-.459.866l-.818,4.457a1.564,1.564,0,0,0-.022.244q0,.977.825.976h5.848a1.138,1.138,0,0,0,.8-.352,1.541,1.541,0,0,0,.459-.866l.818-4.457a1.681,1.681,0,0,0,.021-.244q0-.976-.848-.976H89.911A1.113,1.113,0,0,0,89.132,23.87ZM66.62,34.125l2.634-14.32H79.907a2.532,2.532,0,0,1,1.993.888,3.317,3.317,0,0,1,.779,2.267,4.862,4.862,0,0,1-1.672,3.712A3.079,3.079,0,0,1,82.2,29.326a4.882,4.882,0,0,1-1.306,3.328,3.861,3.861,0,0,1-2.932,1.472Zm4.238-5.233a1.156,1.156,0,0,0-.3.794q0,.726.618.726h6.506a.91.91,0,0,0,.676-.336,1.138,1.138,0,0,0,.31-.795c0-.483-.214-.726-.642-.726H71.522A.875.875,0,0,0,70.858,28.893Zm.916-5.038a1.156,1.156,0,0,0-.3.793c0,.485.213.726.642.726h5.8a.91.91,0,0,0,.676-.336,1.133,1.133,0,0,0,.309-.794q0-.726-.641-.726H72.438A.875.875,0,0,0,71.774,23.854Zm-15.166,9.82a1.644,1.644,0,0,1-.39-1.113,2.012,2.012,0,0,1,.046-.425l1.42-7.8a.605.605,0,0,0,.023-.164q0-.659-.55-.658h-1.42a2.4,2.4,0,0,1-1.879-.829,3.084,3.084,0,0,1-.733-2.12,4.436,4.436,0,0,1,.068-.763h14.09a4.694,4.694,0,0,1-1.419,2.62,3.554,3.554,0,0,1-2.495,1.093h-1.4q-.687,0-.847.823l-1.421,7.8a2.6,2.6,0,0,1-.769,1.4,1.879,1.879,0,0,1-1.319.582A1.27,1.27,0,0,1,56.608,33.674Zm-18.694.451a2.554,2.554,0,0,1-2.016-.888,3.311,3.311,0,0,1-.778-2.267,5.139,5.139,0,0,1,.068-.823l1.9-10.342a2.558,2.558,0,0,1,2.016.888,3.316,3.316,0,0,1,.778,2.269,5.94,5.94,0,0,1-.059.823l-1.018,5.408a1.564,1.564,0,0,0-.022.244q0,.976.825.976h5.5a1.138,1.138,0,0,0,.8-.352,1.541,1.541,0,0,0,.459-.866l1.017-5.407A5.076,5.076,0,0,1,48.9,20.973a3.717,3.717,0,0,1,2.623-1.167l-1.9,10.342a5.061,5.061,0,0,1-1.512,2.812,3.746,3.746,0,0,1-2.634,1.166ZM21.9,23.783a5.035,5.035,0,0,1,1.524-2.812,3.782,3.782,0,0,1,2.646-1.166h9.278a4.823,4.823,0,0,1-1.442,2.62,3.532,3.532,0,0,1-2.473,1.093H26.35q-.961,0-1.167,1.141l-.205,1.112h5.149q1.122,0,1.121,1.247a1.956,1.956,0,0,1-.527,1.352,1.572,1.572,0,0,1-1.19.583H25.184q-.8,0-.961.931l-.049.265a5.022,5.022,0,0,1-1.525,2.81A3.79,3.79,0,0,1,20,34.125Z" fill="url(#linear-gradient)"/>
      <path id="Color_Overlay" data-name="Color Overlay" d="M161.662,33.861a1.965,1.965,0,0,1-.47-1.353,2.922,2.922,0,0,1,.79-2.016,2.334,2.334,0,0,1,1.753-.875,1.536,1.536,0,0,1,1.2.53,1.966,1.966,0,0,1,.47,1.353,2.944,2.944,0,0,1-.779,2.016,2.318,2.318,0,0,1-1.764.875A1.536,1.536,0,0,1,161.662,33.861Zm54.351-.624a3.318,3.318,0,0,1-.779-2.269,4.253,4.253,0,0,1,.084-.823l.994-5.408a1.461,1.461,0,0,0,.023-.244q0-.976-.825-.976h-1.374a1.135,1.135,0,0,0-.8.353,1.551,1.551,0,0,0-.458.867l-1.352,7.4a2.6,2.6,0,0,1-.768,1.406,1.872,1.872,0,0,1-1.317.583,1.267,1.267,0,0,1-1.008-.451,1.641,1.641,0,0,1-.39-1.114,2.257,2.257,0,0,1,.04-.425l1.352-7.4a1.2,1.2,0,0,0,.028-.244q0-.975-.821-.975h-1.37a1.127,1.127,0,0,0-.8.354,1.561,1.561,0,0,0-.456.869l-.995,5.408a5.026,5.026,0,0,1-1.525,2.81,3.79,3.79,0,0,1-2.649,1.166l1.9-10.342a5.03,5.03,0,0,1,1.524-2.812,3.781,3.781,0,0,1,2.646-1.166h10.309a2.531,2.531,0,0,1,1.993.888A3.314,3.314,0,0,1,220,22.961a5.132,5.132,0,0,1-.069.823l-1.9,10.342A2.56,2.56,0,0,1,216.013,33.237Zm-29.185.888a2.529,2.529,0,0,1-1.993-.888,3.311,3.311,0,0,1-.779-2.267,5.139,5.139,0,0,1,.068-.823l1.168-6.364a5.193,5.193,0,0,1,1.535-2.812,3.742,3.742,0,0,1,2.634-1.166h7.9a2.557,2.557,0,0,1,2.016.888,3.313,3.313,0,0,1,.779,2.267,3.885,3.885,0,0,1-.092.823L198.9,30.147a5.061,5.061,0,0,1-1.512,2.812,3.767,3.767,0,0,1-2.658,1.166Zm2.191-10.256a1.541,1.541,0,0,0-.459.866l-.818,4.457a1.563,1.563,0,0,0-.022.244q0,.977.826.976h5.847a1.138,1.138,0,0,0,.8-.352,1.541,1.541,0,0,0,.459-.866l.818-4.457a1.68,1.68,0,0,0,.021-.244q0-.976-.848-.976H189.8A1.114,1.114,0,0,0,189.019,23.87ZM171.478,34.125a2.527,2.527,0,0,1-1.993-.888,3.312,3.312,0,0,1-.779-2.267,5.143,5.143,0,0,1,.069-.823l1.168-6.364a5.192,5.192,0,0,1,1.535-2.812,3.746,3.746,0,0,1,2.635-1.166h9.8a4.821,4.821,0,0,1-1.445,2.62A3.538,3.538,0,0,1,180,23.518H174.45a1.113,1.113,0,0,0-.779.352,1.541,1.541,0,0,0-.459.866l-.818,4.457a1.563,1.563,0,0,0-.022.244q0,.977.824.976h5.888a2.4,2.4,0,0,1,1.879.83,3.043,3.043,0,0,1,.733,2.093,4.575,4.575,0,0,1-.068.789Zm-67.173,0a2.529,2.529,0,0,1-1.993-.888,3.311,3.311,0,0,1-.779-2.267,5.138,5.138,0,0,1,.068-.823l1.9-10.342a2.556,2.556,0,0,1,2.016.888,3.312,3.312,0,0,1,.779,2.269,4.253,4.253,0,0,1-.084.823l-.994,5.408a1.564,1.564,0,0,0-.022.244q0,.976.824.976h4.261a2.421,2.421,0,0,1,1.9.83,3.081,3.081,0,0,1,.733,2.12,3.415,3.415,0,0,1-.092.763Zm-17.366,0a2.528,2.528,0,0,1-1.993-.888,3.312,3.312,0,0,1-.779-2.267,5.142,5.142,0,0,1,.069-.823L85.4,23.783a5.192,5.192,0,0,1,1.535-2.812,3.746,3.746,0,0,1,2.635-1.166h7.9a2.557,2.557,0,0,1,2.016.888,3.317,3.317,0,0,1,.779,2.267,3.885,3.885,0,0,1-.092.823l-1.168,6.364A5.061,5.061,0,0,1,97.5,32.959a3.77,3.77,0,0,1-2.658,1.166ZM89.132,23.87a1.541,1.541,0,0,0-.459.866l-.818,4.457a1.564,1.564,0,0,0-.022.244q0,.977.825.976h5.848a1.138,1.138,0,0,0,.8-.352,1.541,1.541,0,0,0,.459-.866l.818-4.457a1.681,1.681,0,0,0,.021-.244q0-.976-.848-.976H89.911A1.113,1.113,0,0,0,89.132,23.87ZM66.62,34.125l2.634-14.32H79.907a2.532,2.532,0,0,1,1.993.888,3.317,3.317,0,0,1,.779,2.267,4.862,4.862,0,0,1-1.672,3.712A3.079,3.079,0,0,1,82.2,29.326a4.882,4.882,0,0,1-1.306,3.328,3.861,3.861,0,0,1-2.932,1.472Zm4.238-5.233a1.156,1.156,0,0,0-.3.794q0,.726.618.726h6.506a.91.91,0,0,0,.676-.336,1.138,1.138,0,0,0,.31-.795c0-.483-.214-.726-.642-.726H71.522A.875.875,0,0,0,70.858,28.893Zm.916-5.038a1.156,1.156,0,0,0-.3.793c0,.485.213.726.642.726h5.8a.91.91,0,0,0,.676-.336,1.133,1.133,0,0,0,.309-.794q0-.726-.641-.726H72.438A.875.875,0,0,0,71.774,23.854Zm-15.166,9.82a1.644,1.644,0,0,1-.39-1.113,2.012,2.012,0,0,1,.046-.425l1.42-7.8a.605.605,0,0,0,.023-.164q0-.659-.55-.658h-1.42a2.4,2.4,0,0,1-1.879-.829,3.084,3.084,0,0,1-.733-2.12,4.436,4.436,0,0,1,.068-.763h14.09a4.694,4.694,0,0,1-1.419,2.62,3.554,3.554,0,0,1-2.495,1.093h-1.4q-.687,0-.847.823l-1.421,7.8a2.6,2.6,0,0,1-.769,1.4,1.879,1.879,0,0,1-1.319.582A1.27,1.27,0,0,1,56.608,33.674Zm-18.694.451a2.554,2.554,0,0,1-2.016-.888,3.311,3.311,0,0,1-.778-2.267,5.139,5.139,0,0,1,.068-.823l1.9-10.342a2.558,2.558,0,0,1,2.016.888,3.316,3.316,0,0,1,.778,2.269,5.94,5.94,0,0,1-.059.823l-1.018,5.408a1.564,1.564,0,0,0-.022.244q0,.976.825.976h5.5a1.138,1.138,0,0,0,.8-.352,1.541,1.541,0,0,0,.459-.866l1.017-5.407A5.076,5.076,0,0,1,48.9,20.973a3.717,3.717,0,0,1,2.623-1.167l-1.9,10.342a5.061,5.061,0,0,1-1.512,2.812,3.746,3.746,0,0,1-2.634,1.166ZM21.9,23.783a5.035,5.035,0,0,1,1.524-2.812,3.782,3.782,0,0,1,2.646-1.166h9.278a4.823,4.823,0,0,1-1.442,2.62,3.532,3.532,0,0,1-2.473,1.093H26.35q-.961,0-1.167,1.141l-.205,1.112h5.149q1.122,0,1.121,1.247a1.956,1.956,0,0,1-.527,1.352,1.572,1.572,0,0,1-1.19.583H25.184q-.8,0-.961.931l-.049.265a5.022,5.022,0,0,1-1.525,2.81A3.79,3.79,0,0,1,20,34.125Z" fill="#fff"/>
    </g>
  </g>
</svg>
